<svg width="65" height="170" viewBox="0 0 65 170" fill="none" xmlns="http://www.w3.org/2000/svg">
<g clip-path="url(#clip0_74_219)">
<path d="M44.0254 169.949L65 169.949L54.5127 159.462L44.0254 169.949Z" fill="#9333EA"/>
<path d="M44.0254 134.411L65 134.411L54.5127 123.923L44.0254 134.411Z" fill="#9333EA"/>
<path d="M44.0254 98.8569L65 98.8569L54.5127 88.3696L44.0254 98.8569Z" fill="#9333EA"/>
<path d="M44.0254 63.3183L65 63.3183L54.5127 52.831L44.0254 63.3183Z" fill="#9333EA"/>
<path d="M44.0254 27.7796L65 27.7796L54.5127 17.2772L44.0254 27.7796Z" fill="#9333EA"/>
<path d="M0.000263214 152.672L20.9749 152.672L10.4876 142.185L0.000263214 152.672Z" fill="#9333EA"/>
<path d="M1.90735e-05 117.119L20.9746 117.119L10.4873 106.631L1.90735e-05 117.119Z" fill="#9333EA"/>
<path d="M1.90735e-05 81.58L20.9746 81.58L10.4873 71.0927L1.90735e-05 81.58Z" fill="#9333EA"/>
<path d="M1.90735e-05 46.0415L20.9746 46.0415L10.4873 35.5542L1.90735e-05 46.0415Z" fill="#9333EA"/>
<path d="M1.90735e-05 10.4877L20.9746 10.4877L10.4873 0.000425302L1.90735e-05 10.4877Z" fill="#9333EA"/>
</g>
<defs>
<clipPath id="clip0_74_219">
<rect width="65" height="169.949" fill="white" transform="translate(65 169.949) rotate(180)"/>
</clipPath>
</defs>
</svg>
