<svg width="30" height="30" viewBox="0 0 30 30" fill="none" xmlns="http://www.w3.org/2000/svg">
<rect width="30" height="30" rx="3" fill="#111018"/>
<path d="M20.0025 20.0025L21.6675 19.17V17.085M16.665 13.335L15 14.1675L16.665 13.335ZM15 14.1675L13.335 13.335L15 14.1675ZM15 14.1675V16.2525V14.1675ZM21.6675 10.83L20.0025 11.6625L21.6675 10.83ZM21.6675 10.83L20.0025 9.9975L21.6675 10.83ZM21.6675 10.83V12.915V10.83ZM16.665 8.3325L15 7.5L13.335 8.3325H16.665ZM8.33252 10.83L9.99752 9.9975L8.33252 10.83ZM8.33252 10.83L9.99752 11.6625L8.33252 10.83ZM8.33252 10.83V12.915V10.83ZM15 22.5L13.335 21.6675L15 22.5ZM15 22.5L16.665 21.6675L15 22.5ZM15 22.5V20.415V22.5ZM9.99752 20.0025L8.33252 19.17V17.085L9.99752 20.0025Z" stroke="white" stroke-width="1.5" stroke-linecap="round" stroke-linejoin="round"/>
</svg>
