<svg width="30" height="30" viewBox="0 0 30 30" fill="none" xmlns="http://www.w3.org/2000/svg">
<rect width="30" height="30" rx="3" fill="#9333EA"/>
<g clip-path="url(#clip0_72_183)">
<path d="M20.8426 11.4524L18.5701 9.17995C17.7076 8.31745 16.5301 8.36245 15.9526 9.28495L14.6851 11.2874L18.7351 15.3374L20.7376 14.0699C21.6001 13.5224 21.6526 12.2624 20.8426 11.4524Z" stroke="white" stroke-width="1.5" stroke-linecap="round" stroke-linejoin="round"/>
<path d="M14.685 11.2875L11.7375 11.1075C10.095 11.01 9.51749 11.5125 9.33749 13.08L8.60249 19.32C8.44499 20.6325 9.39749 21.5775 10.7025 21.42L16.9425 20.685C18.51 20.4975 19.08 19.9275 18.915 18.285L18.7425 15.3375" stroke="white" stroke-width="1.5" stroke-linecap="round" stroke-linejoin="round"/>
<path d="M9.45752 20.565L11.73 18.285" stroke="white" stroke-width="1.5" stroke-linecap="round" stroke-linejoin="round"/>
</g>
<defs>
<clipPath id="clip0_72_183">
<rect width="18" height="18" fill="white" transform="translate(6 6)"/>
</clipPath>
</defs>
</svg>
