<svg width="49" height="48" viewBox="0 0 49 48" fill="none" xmlns="http://www.w3.org/2000/svg">
<rect x="0.333252" width="48" height="48" rx="8" fill="#FFA800"/>
<path d="M34.3333 16.85V28.74C34.3333 29.71 33.5433 30.6 32.5733 30.72L32.2633 30.76C30.6233 30.98 28.3133 31.66 26.4533 32.44C25.8033 32.71 25.0833 32.22 25.0833 31.51V17.6C25.0833 17.23 25.2933 16.89 25.6233 16.71C27.4533 15.72 30.2233 14.84 32.1033 14.68H32.1633C33.3633 14.68 34.3333 15.65 34.3333 16.85Z" fill="white"/>
<path d="M23.0432 16.71C21.2132 15.72 18.4432 14.84 16.5632 14.68H16.4932C15.2932 14.68 14.3232 15.65 14.3232 16.85V28.74C14.3232 29.71 15.1132 30.6 16.0832 30.72L16.3932 30.76C18.0332 30.98 20.3432 31.66 22.2032 32.44C22.8532 32.71 23.5732 32.22 23.5732 31.51V17.6C23.5732 17.22 23.3732 16.89 23.0432 16.71ZM17.3332 19.74H19.5832C19.9932 19.74 20.3332 20.08 20.3332 20.49C20.3332 20.91 19.9932 21.24 19.5832 21.24H17.3332C16.9232 21.24 16.5832 20.91 16.5832 20.49C16.5832 20.08 16.9232 19.74 17.3332 19.74ZM20.3332 24.24H17.3332C16.9232 24.24 16.5832 23.91 16.5832 23.49C16.5832 23.08 16.9232 22.74 17.3332 22.74H20.3332C20.7432 22.74 21.0832 23.08 21.0832 23.49C21.0832 23.91 20.7432 24.24 20.3332 24.24Z" fill="white"/>
</svg>
