<svg width="48" height="48" viewBox="0 0 48 48" fill="none" xmlns="http://www.w3.org/2000/svg">
<rect width="48" height="48" rx="8" fill="#9333EA"/>
<path d="M21 14C18.38 14 16.25 16.13 16.25 18.75C16.25 21.32 18.26 23.4 20.88 23.49C20.96 23.48 21.04 23.48 21.1 23.49C21.12 23.49 21.13 23.49 21.15 23.49C21.16 23.49 21.16 23.49 21.17 23.49C23.73 23.4 25.74 21.32 25.75 18.75C25.75 16.13 23.62 14 21 14Z" fill="white"/>
<path d="M26.08 26.15C23.29 24.29 18.74 24.29 15.93 26.15C14.66 27 13.96 28.15 13.96 29.38C13.96 30.61 14.66 31.75 15.92 32.59C17.32 33.53 19.16 34 21 34C22.84 34 24.68 33.53 26.08 32.59C27.34 31.74 28.04 30.6 28.04 29.36C28.03 28.13 27.34 26.99 26.08 26.15Z" fill="white"/>
<path d="M31.99 19.34C32.15 21.28 30.77 22.98 28.86 23.21C28.85 23.21 28.85 23.21 28.84 23.21H28.81C28.75 23.21 28.69 23.21 28.64 23.23C27.67 23.28 26.78 22.97 26.11 22.4C27.14 21.48 27.73 20.1 27.61 18.6C27.54 17.79 27.26 17.05 26.84 16.42C27.22 16.23 27.66 16.11 28.11 16.07C30.07 15.9 31.82 17.36 31.99 19.34Z" fill="white"/>
<path d="M33.99 28.59C33.91 29.56 33.29 30.4 32.25 30.97C31.25 31.52 29.99 31.78 28.74 31.75C29.46 31.1 29.88 30.29 29.96 29.43C30.06 28.19 29.47 27 28.29 26.05C27.62 25.52 26.84 25.1 25.99 24.79C28.2 24.15 30.98 24.58 32.69 25.96C33.61 26.7 34.08 27.63 33.99 28.59Z" fill="white"/>
</svg>
