<svg width="49" height="48" viewBox="0 0 49 48" fill="none" xmlns="http://www.w3.org/2000/svg">
<rect x="0.666626" width="48" height="48" rx="8" fill="#FF0069"/>
<path d="M24.6666 14C19.1566 14 14.6666 18.49 14.6666 24C14.6666 29.51 19.1566 34 24.6666 34C30.1766 34 34.6666 29.51 34.6666 24C34.6666 18.49 30.1766 14 24.6666 14ZM29.0166 27.57C28.8766 27.81 28.6266 27.94 28.3666 27.94C28.2366 27.94 28.1066 27.91 27.9866 27.83L24.8866 25.98C24.1166 25.52 23.5466 24.51 23.5466 23.62V19.52C23.5466 19.11 23.8866 18.77 24.2966 18.77C24.7066 18.77 25.0466 19.11 25.0466 19.52V23.62C25.0466 23.98 25.3466 24.51 25.6566 24.69L28.7566 26.54C29.1166 26.75 29.2366 27.21 29.0166 27.57Z" fill="white"/>
</svg>
