<svg width="48" height="48" viewBox="0 0 48 48" fill="none" xmlns="http://www.w3.org/2000/svg">
<rect width="48" height="48" rx="8" fill="#00FF47"/>
<path d="M24.75 27.92H25.4C26.05 27.92 26.59 27.34 26.59 26.64C26.59 25.77 26.28 25.6 25.77 25.42L24.76 25.07V27.92H24.75Z" fill="white"/>
<path d="M23.9701 13.9C18.4501 13.92 13.9801 18.41 14.0001 23.93C14.0201 29.45 18.5101 33.92 24.0301 33.9C29.5501 33.88 34.0201 29.39 34.0001 23.87C33.9801 18.35 29.4901 13.89 23.9701 13.9ZM26.2601 24C27.0401 24.27 28.0901 24.85 28.0901 26.64C28.0901 28.18 26.8801 29.42 25.4001 29.42H24.7501V30C24.7501 30.41 24.4101 30.75 24.0001 30.75C23.5901 30.75 23.2501 30.41 23.2501 30V29.42H22.8901C21.2501 29.42 19.9201 28.04 19.9201 26.34C19.9201 25.93 20.2601 25.59 20.6701 25.59C21.0801 25.59 21.4201 25.93 21.4201 26.34C21.4201 27.21 22.0801 27.92 22.8901 27.92H23.2501V24.54L21.7401 24C20.9601 23.73 19.9101 23.15 19.9101 21.36C19.9101 19.82 21.1201 18.58 22.6001 18.58H23.2501V18C23.2501 17.59 23.5901 17.25 24.0001 17.25C24.4101 17.25 24.7501 17.59 24.7501 18V18.58H25.1101C26.7501 18.58 28.0801 19.96 28.0801 21.66C28.0801 22.07 27.7401 22.41 27.3301 22.41C26.9201 22.41 26.5801 22.07 26.5801 21.66C26.5801 20.79 25.9201 20.08 25.1101 20.08H24.7501V23.46L26.2601 24Z" fill="white"/>
<path d="M21.4199 21.37C21.4199 22.24 21.7299 22.41 22.2399 22.59L23.2499 22.94V20.08H22.5999C21.9499 20.08 21.4199 20.66 21.4199 21.37Z" fill="white"/>
</svg>
